<svg xmlns="http://www.w3.org/2000/svg" width="18" height="18" viewBox="0 0 18 18"><path d="m10.75,8.25h3c1.1046,0,2,.8954,2,2h0c0,1.1046-.8954,2-2,2H4.25c-1.1046,0-2,.8954-2,2h0c0,1.1046.8954,2,2,2h4" fill="none" stroke="currentColor" stroke-linecap="round" stroke-linejoin="round" stroke-width="1" data-color="color-2"></path><path d="m5.5,9.25c.8577-.2587,3.25-2.069,3.25-4.3966,0-1.7131-1.455-3.1034-3.25-3.1034s-3.25,1.3904-3.25,3.1034c0,2.3276,2.3923,4.1379,3.25,4.3966Z" fill="none" stroke="currentColor" stroke-linecap="round" stroke-linejoin="round" stroke-width="1"></path><circle cx="5.5" cy="5" r="1" stroke-width="0" fill="currentColor"></circle></svg>
